<svg width="500" height="420" viewBox="0 0 500 420" fill="none" xmlns="http://www.w3.org/2000/svg">
  <!-- cable -->
  <path d="M300 384 Q340 394 356 420 Q366 438 348 452" stroke="#000" stroke-width="8" fill="none" stroke-linecap="round"/>

  <!-- base -->
  <rect x="205" y="368" width="90" height="16" rx="8" fill="#000"/>
  <rect x="230" y="338" width="40" height="34" fill="#000"/>

  <!-- decorative floating accents -->
  <circle cx="52" cy="34" r="8" fill="#000"/>
  <rect x="18" y="72" width="14" height="14" rx="3" fill="#000"/>
  <circle cx="46" cy="118" r="5" fill="#000"/>

  <!-- monitor chassis -->
  <rect x="70" y="40" width="360" height="300" rx="32" fill="#000"/>

  <!-- bezel -->
  <rect x="86" y="56" width="328" height="234" rx="22" fill="#fff" stroke="#000" stroke-width="6"/>

  <!-- screen -->
  <rect x="110" y="80" width="280" height="186" rx="14" fill="#000"/>

  <!-- smile -->
  <path d="M188 205 Q250 250 312 205" stroke="#fff" stroke-width="12" fill="none" stroke-linecap="round"/>

  <!-- vent lines -->
  <rect x="352" y="66" width="30" height="5" rx="2.5" fill="#fff"/>
  <rect x="352" y="76" width="22" height="5" rx="2.5" fill="#fff"/>

  <!-- power indicator -->
  <circle cx="250" cy="317" r="6" fill="#fff"/>
</svg>
